<mxfile host="app.diagrams.net" modified="2022-12-06T11:40:47.383Z" agent="5.0 (X11; Ubuntu)" etag="F8Er1SGHfzzW1uWzIqSe" version="20.6.0" type="github">
  <diagram id="zjbsmMx9dNUYekVJXI4S" name="Page-1">
    <mxGraphModel dx="68" dy="993" grid="1" gridSize="10" guides="1" tooltips="1" connect="1" arrows="1" fold="1" page="0" pageScale="1" pageWidth="850" pageHeight="1100" math="0" shadow="0">
      <root>
        <mxCell id="0" />
        <mxCell id="1" parent="0" />
        <mxCell id="_Qzaa5entBogjLJZciO9-70" value="&lt;font style=&quot;font-size: 33px;&quot;&gt;Wireframe of the calendar page&lt;/font&gt;" style="text;html=1;strokeColor=none;fillColor=none;align=center;verticalAlign=middle;whiteSpace=wrap;rounded=0;fontSize=16;" parent="1" vertex="1">
          <mxGeometry x="1140" y="-60" width="320" height="100" as="geometry" />
        </mxCell>
        <mxCell id="j1M_ww33Xoy92D7wLLYM-1" value="" style="rounded=0;whiteSpace=wrap;html=1;" parent="1" vertex="1">
          <mxGeometry x="960" y="120" width="680" height="210" as="geometry" />
        </mxCell>
        <mxCell id="j1M_ww33Xoy92D7wLLYM-2" value="&lt;font style=&quot;font-size: 16px;&quot;&gt;Logo&lt;/font&gt;" style="ellipse;whiteSpace=wrap;html=1;aspect=fixed;" parent="1" vertex="1">
          <mxGeometry x="1010" y="160" width="140" height="140" as="geometry" />
        </mxCell>
        <mxCell id="j1M_ww33Xoy92D7wLLYM-3" value="Moto" style="rounded=0;whiteSpace=wrap;html=1;fontSize=16;" parent="1" vertex="1">
          <mxGeometry x="1200" y="195" width="370" height="60" as="geometry" />
        </mxCell>
        <mxCell id="j1M_ww33Xoy92D7wLLYM-4" value="" style="rounded=0;whiteSpace=wrap;html=1;fontSize=16;" parent="1" vertex="1">
          <mxGeometry x="960" y="330" width="680" height="50" as="geometry" />
        </mxCell>
        <mxCell id="j1M_ww33Xoy92D7wLLYM-5" value="Academics" style="rounded=0;whiteSpace=wrap;html=1;fontSize=16;" parent="1" vertex="1">
          <mxGeometry x="980" y="330" width="120" height="50" as="geometry" />
        </mxCell>
        <mxCell id="j1M_ww33Xoy92D7wLLYM-6" value="Calendar" style="rounded=0;whiteSpace=wrap;html=1;fontSize=16;" parent="1" vertex="1">
          <mxGeometry x="1110" y="330" width="120" height="50" as="geometry" />
        </mxCell>
        <mxCell id="j1M_ww33Xoy92D7wLLYM-7" value="About" style="rounded=0;whiteSpace=wrap;html=1;fontSize=16;" parent="1" vertex="1">
          <mxGeometry x="1370" y="330" width="120" height="50" as="geometry" />
        </mxCell>
        <mxCell id="j1M_ww33Xoy92D7wLLYM-8" value="Contact us" style="rounded=0;whiteSpace=wrap;html=1;fontSize=16;" parent="1" vertex="1">
          <mxGeometry x="1500" y="330" width="120" height="50" as="geometry" />
        </mxCell>
        <mxCell id="j1M_ww33Xoy92D7wLLYM-9" value="space" style="rounded=0;whiteSpace=wrap;html=1;fontSize=16;" parent="1" vertex="1">
          <mxGeometry x="960" y="380" width="680" height="40" as="geometry" />
        </mxCell>
        <mxCell id="j1M_ww33Xoy92D7wLLYM-10" value="Stories" style="rounded=0;whiteSpace=wrap;html=1;fontSize=16;" parent="1" vertex="1">
          <mxGeometry x="1240" y="330" width="120" height="50" as="geometry" />
        </mxCell>
        <mxCell id="j1M_ww33Xoy92D7wLLYM-11" value="" style="rounded=0;whiteSpace=wrap;html=1;" parent="1" vertex="1">
          <mxGeometry x="960" y="420" width="680" height="890" as="geometry" />
        </mxCell>
        <mxCell id="j1M_ww33Xoy92D7wLLYM-85" value="&lt;font style=&quot;font-size: 16px;&quot;&gt;date&lt;/font&gt;" style="rounded=1;whiteSpace=wrap;html=1;fontSize=22;" parent="1" vertex="1">
          <mxGeometry x="1020" y="610" width="80" height="60" as="geometry" />
        </mxCell>
        <mxCell id="j1M_ww33Xoy92D7wLLYM-88" value="&lt;font style=&quot;font-size: 16px;&quot;&gt;date&lt;/font&gt;" style="rounded=1;whiteSpace=wrap;html=1;fontSize=22;" parent="1" vertex="1">
          <mxGeometry x="1020" y="750" width="80" height="60" as="geometry" />
        </mxCell>
        <mxCell id="j1M_ww33Xoy92D7wLLYM-89" value="&lt;font style=&quot;font-size: 16px;&quot;&gt;date&lt;/font&gt;" style="rounded=1;whiteSpace=wrap;html=1;fontSize=22;" parent="1" vertex="1">
          <mxGeometry x="1110" y="610" width="80" height="60" as="geometry" />
        </mxCell>
        <mxCell id="j1M_ww33Xoy92D7wLLYM-90" value="&lt;font style=&quot;font-size: 16px;&quot;&gt;date&lt;/font&gt;" style="rounded=1;whiteSpace=wrap;html=1;fontSize=22;" parent="1" vertex="1">
          <mxGeometry x="1200" y="610" width="80" height="60" as="geometry" />
        </mxCell>
        <mxCell id="j1M_ww33Xoy92D7wLLYM-91" value="&lt;font style=&quot;font-size: 16px;&quot;&gt;date&lt;/font&gt;" style="rounded=1;whiteSpace=wrap;html=1;fontSize=22;" parent="1" vertex="1">
          <mxGeometry x="1020" y="680" width="80" height="60" as="geometry" />
        </mxCell>
        <mxCell id="j1M_ww33Xoy92D7wLLYM-92" value="&lt;font style=&quot;font-size: 16px;&quot;&gt;date&lt;/font&gt;" style="rounded=1;whiteSpace=wrap;html=1;fontSize=22;" parent="1" vertex="1">
          <mxGeometry x="1110" y="680" width="80" height="60" as="geometry" />
        </mxCell>
        <mxCell id="j1M_ww33Xoy92D7wLLYM-93" value="&lt;font style=&quot;font-size: 16px;&quot;&gt;date&lt;/font&gt;" style="rounded=1;whiteSpace=wrap;html=1;fontSize=22;" parent="1" vertex="1">
          <mxGeometry x="1200" y="680" width="80" height="60" as="geometry" />
        </mxCell>
        <mxCell id="j1M_ww33Xoy92D7wLLYM-98" value="" style="rounded=0;whiteSpace=wrap;html=1;strokeWidth=1;fontSize=16;" parent="1" vertex="1">
          <mxGeometry x="1330" y="590" width="250" height="330" as="geometry" />
        </mxCell>
        <mxCell id="j1M_ww33Xoy92D7wLLYM-99" value="Event details for a selected day" style="text;html=1;strokeColor=none;fillColor=none;align=center;verticalAlign=middle;whiteSpace=wrap;rounded=0;strokeWidth=1;fontSize=16;" parent="1" vertex="1">
          <mxGeometry x="1392.5" y="705" width="125" height="70" as="geometry" />
        </mxCell>
        <mxCell id="j1M_ww33Xoy92D7wLLYM-102" value="This week" style="rounded=0;whiteSpace=wrap;html=1;strokeWidth=1;fontSize=16;" parent="1" vertex="1">
          <mxGeometry x="1010" y="520" width="120" height="60" as="geometry" />
        </mxCell>
        <mxCell id="j1M_ww33Xoy92D7wLLYM-103" value="&lt;font style=&quot;font-size: 18px;&quot;&gt;Events&lt;/font&gt;" style="rounded=0;whiteSpace=wrap;html=1;strokeWidth=1;fontSize=16;" parent="1" vertex="1">
          <mxGeometry x="1240" y="440" width="120" height="60" as="geometry" />
        </mxCell>
        <mxCell id="j1M_ww33Xoy92D7wLLYM-104" value="&lt;font style=&quot;font-size: 16px;&quot;&gt;Upcoming&lt;/font&gt;" style="rounded=0;whiteSpace=wrap;html=1;strokeWidth=1;fontSize=18;" parent="1" vertex="1">
          <mxGeometry x="1010" y="960" width="120" height="60" as="geometry" />
        </mxCell>
        <mxCell id="j1M_ww33Xoy92D7wLLYM-105" value="Event details" style="rounded=0;whiteSpace=wrap;html=1;strokeWidth=1;fontSize=16;" parent="1" vertex="1">
          <mxGeometry x="1010" y="1060" width="490" height="60" as="geometry" />
        </mxCell>
        <mxCell id="j1M_ww33Xoy92D7wLLYM-106" value="Event details" style="rounded=0;whiteSpace=wrap;html=1;strokeWidth=1;fontSize=16;" parent="1" vertex="1">
          <mxGeometry x="1010" y="1135" width="490" height="60" as="geometry" />
        </mxCell>
        <mxCell id="j1M_ww33Xoy92D7wLLYM-107" value="Event details" style="rounded=0;whiteSpace=wrap;html=1;strokeWidth=1;fontSize=16;" parent="1" vertex="1">
          <mxGeometry x="1010" y="1210" width="490" height="60" as="geometry" />
        </mxCell>
        <mxCell id="j1M_ww33Xoy92D7wLLYM-108" value="space" style="rounded=0;whiteSpace=wrap;html=1;fontSize=16;" parent="1" vertex="1">
          <mxGeometry x="960" y="1310" width="680" height="70" as="geometry" />
        </mxCell>
        <mxCell id="j1M_ww33Xoy92D7wLLYM-109" value="" style="rounded=0;whiteSpace=wrap;html=1;fontSize=16;" parent="1" vertex="1">
          <mxGeometry x="960" y="1380" width="680" height="260" as="geometry" />
        </mxCell>
        <mxCell id="j1M_ww33Xoy92D7wLLYM-110" value="Contact us" style="rounded=0;whiteSpace=wrap;html=1;fontSize=16;" parent="1" vertex="1">
          <mxGeometry x="990" y="1400" width="110" height="40" as="geometry" />
        </mxCell>
        <mxCell id="j1M_ww33Xoy92D7wLLYM-111" value="email field" style="rounded=0;whiteSpace=wrap;html=1;fontSize=16;" parent="1" vertex="1">
          <mxGeometry x="990" y="1470" width="180" height="40" as="geometry" />
        </mxCell>
        <mxCell id="j1M_ww33Xoy92D7wLLYM-112" value="message field" style="rounded=0;whiteSpace=wrap;html=1;fontSize=16;" parent="1" vertex="1">
          <mxGeometry x="990" y="1520" width="180" height="60" as="geometry" />
        </mxCell>
        <mxCell id="j1M_ww33Xoy92D7wLLYM-113" value="submit" style="rounded=1;whiteSpace=wrap;html=1;fontSize=16;" parent="1" vertex="1">
          <mxGeometry x="990" y="1590" width="100" height="30" as="geometry" />
        </mxCell>
        <mxCell id="j1M_ww33Xoy92D7wLLYM-114" value="Site-map" style="rounded=0;whiteSpace=wrap;html=1;fontSize=16;" parent="1" vertex="1">
          <mxGeometry x="1240" y="1400" width="110" height="40" as="geometry" />
        </mxCell>
        <mxCell id="j1M_ww33Xoy92D7wLLYM-115" value="&lt;div align=&quot;left&quot;&gt;- Home&lt;/div&gt;&lt;div align=&quot;left&quot;&gt;- Calendar&lt;/div&gt;&lt;div align=&quot;left&quot;&gt;- Success stories&lt;br&gt;&lt;/div&gt;&lt;div align=&quot;left&quot;&gt;- About&lt;/div&gt;&lt;div align=&quot;left&quot;&gt;- Contact us&lt;/div&gt;&lt;div&gt;&lt;br&gt;&lt;/div&gt;&lt;div&gt;&lt;br&gt;&lt;/div&gt;" style="text;html=1;strokeColor=none;fillColor=none;align=center;verticalAlign=middle;whiteSpace=wrap;rounded=0;fontSize=16;" parent="1" vertex="1">
          <mxGeometry x="1230" y="1470" width="140" height="140" as="geometry" />
        </mxCell>
        <mxCell id="j1M_ww33Xoy92D7wLLYM-116" value="Logo" style="ellipse;whiteSpace=wrap;html=1;aspect=fixed;fontSize=16;" parent="1" vertex="1">
          <mxGeometry x="1440" y="1400" width="70" height="70" as="geometry" />
        </mxCell>
        <mxCell id="j1M_ww33Xoy92D7wLLYM-117" value="&lt;font style=&quot;font-size: 18px;&quot;&gt;School Name&lt;/font&gt;" style="text;html=1;strokeColor=none;fillColor=none;align=center;verticalAlign=middle;whiteSpace=wrap;rounded=0;fontSize=16;" parent="1" vertex="1">
          <mxGeometry x="1510" y="1405" width="90" height="60" as="geometry" />
        </mxCell>
        <mxCell id="j1M_ww33Xoy92D7wLLYM-118" value="&lt;div align=&quot;left&quot;&gt;&lt;font style=&quot;font-size: 16px;&quot;&gt;Phone number&lt;/font&gt;&lt;/div&gt;" style="text;html=1;strokeColor=none;fillColor=none;align=left;verticalAlign=middle;whiteSpace=wrap;rounded=0;fontSize=18;" parent="1" vertex="1">
          <mxGeometry x="1450" y="1480" width="135" height="30" as="geometry" />
        </mxCell>
        <mxCell id="j1M_ww33Xoy92D7wLLYM-119" value="&lt;div style=&quot;font-size: 16px;&quot; align=&quot;left&quot;&gt;&lt;font style=&quot;font-size: 16px;&quot;&gt;Email address&lt;br&gt;&lt;/font&gt;&lt;/div&gt;" style="text;html=1;strokeColor=none;fillColor=none;align=left;verticalAlign=middle;whiteSpace=wrap;rounded=0;fontSize=18;" parent="1" vertex="1">
          <mxGeometry x="1450" y="1510" width="135" height="30" as="geometry" />
        </mxCell>
        <mxCell id="j1M_ww33Xoy92D7wLLYM-120" value="&lt;font style=&quot;font-size: 16px;&quot;&gt;Postal code&lt;/font&gt;" style="text;html=1;strokeColor=none;fillColor=none;align=left;verticalAlign=middle;whiteSpace=wrap;rounded=0;fontSize=18;" parent="1" vertex="1">
          <mxGeometry x="1450" y="1540" width="135" height="30" as="geometry" />
        </mxCell>
        <mxCell id="j1M_ww33Xoy92D7wLLYM-121" value="&lt;div align=&quot;left&quot;&gt;&amp;nbsp;&amp;nbsp;&amp;nbsp;&amp;nbsp;&amp;nbsp;&amp;nbsp; copyright information&lt;br&gt;&lt;/div&gt;" style="rounded=0;whiteSpace=wrap;html=1;fontSize=16;align=left;" parent="1" vertex="1">
          <mxGeometry x="960" y="1640" width="680" height="40" as="geometry" />
        </mxCell>
      </root>
    </mxGraphModel>
  </diagram>
</mxfile>
